<svg xmlns="http://www.w3.org/2000/svg" viewBox="0 0 412.22 412.22"><defs><style>.cls-1{fill:#f3a009;}</style></defs><g id="Layer_2" data-name="Layer 2"><g id="Layer_1-2" data-name="Layer 1"><path class="cls-1" d="M301.2,207c-3.11-26.08-25.87-23.25-25.87-23.25C252,187.79,252.54,207,252.54,207Z"/><path class="cls-1" d="M178.17,172.49V172s.69-8.68-6-13.59A18.52,18.52,0,0,0,161.26,155H124.68v34h35.43C170,189,178.17,181.77,178.17,172.49Z"/><path class="cls-1" d="M182.46,230.86s.71-9.32-6.49-15.72c-3.17-2.82-7.53-3.95-11.78-3.95H124.68v39.34h38.54a19.2,19.2,0,0,0,19.26-19.14h0C182.48,231.21,182.47,231,182.46,230.86Z"/><path class="cls-1" d="M356.79,0H55.43A55.43,55.43,0,0,0,0,55.43V356.79a55.43,55.43,0,0,0,55.43,55.43H356.79a55.43,55.43,0,0,0,55.43-55.43V55.43A55.43,55.43,0,0,0,356.79,0ZM245.52,133.59h61.91v17.57H245.52ZM170.63,277.3H89.81v-148h83.12s34,.5,35.82,35.81c0,0,2.3,25.95-20,30,0,0,27.36,3.52,25.68,40.29C214.43,235.4,214.85,275.88,170.63,277.3Zm105.85-.17C234,277.54,223,241.25,223,241.25c-4.66-16.63,0-38.73,0-38.73,12.5-43.66,54.94-40.75,54.94-40.75,35.27.74,45,24.74,45,24.74,9.29,14,6.29,40.34,6.29,40.34H251.8c.41,25.75,24.67,26.16,24.67,26.16,24.06,1.42,25.41-15.41,25.41-15.41h27.85C328.18,282,276.48,277.13,276.48,277.13Z"/></g></g></svg>