<svg xmlns="http://www.w3.org/2000/svg" viewBox="0 0 595.75 581.18"><defs><style>.cls-1{fill:#f3a009;}</style></defs><g id="Layer_2" data-name="Layer 2"><g id="Layer_1-2" data-name="Layer 1"><path class="cls-1" d="M555.79,148.36A296.61,296.61,0,0,0,447.39,40Q378.93,0,297.87,0T148.36,40A296.56,296.56,0,0,0,40,148.36Q0,216.81,0,297.86,0,395.23,56.82,473T203.62,580.6q10.47,1.95,15.51-2.71a15.17,15.17,0,0,0,5-11.63q0-1.15-.19-20.94t-.2-34.51l-8.92,1.54a114.32,114.32,0,0,1-21.52,1.36,163.71,163.71,0,0,1-27-2.72,60.2,60.2,0,0,1-26-11.63,49.19,49.19,0,0,1-17.06-23.84l-3.88-8.93a96.83,96.83,0,0,0-12.21-19.78Q98.9,436,90.37,432.08l-2.72-1.95a28.23,28.23,0,0,1-5-4.66A21.17,21.17,0,0,1,79.12,420q-1.17-2.71,1.94-4.46c2.07-1.17,5.82-1.74,11.25-1.74l7.75,1.16q7.75,1.56,19.2,9.31a62.52,62.52,0,0,1,18.81,20.16q8.93,15.9,21.53,24.24t25.4,8.34a110.84,110.84,0,0,0,22.11-1.93,77.63,77.63,0,0,0,17.45-5.82q3.49-26,19-40a264.34,264.34,0,0,1-39.75-7,157.85,157.85,0,0,1-36.46-15.13,104.58,104.58,0,0,1-31.22-26q-12.42-15.53-20.36-40.73t-8-58.18q0-46.93,30.64-79.9-14.36-35.28,2.71-79.11,11.25-3.49,33.36,5.23t32.39,14.93Q217.2,149.7,223.4,154a279.86,279.86,0,0,1,148.94,0l14.74-9.31a208.43,208.43,0,0,1,35.68-17.07q20.55-7.75,31.42-4.26,17.46,43.83,3.1,79.12,30.64,33,30.65,79.9,0,33-7.95,58.36t-20.55,40.73A108.36,108.36,0,0,1,428,407.23a159,159,0,0,1-36.47,15.13,264.28,264.28,0,0,1-39.75,7Q372,446.8,372,484.42v81.83a15.43,15.43,0,0,0,4.86,11.63q4.85,4.65,15.31,2.71,90-29.85,146.81-107.62t56.82-175.12Q595.74,216.82,555.79,148.36Z"/></g></g></svg>