<svg xmlns="http://www.w3.org/2000/svg" viewBox="0 0 464.33 464.27"><defs><style>.cls-1{fill:#f3a009;fill-rule:evenodd;}</style></defs><g id="Layer_2" data-name="Layer 2"><g id="Layer_1-2" data-name="Layer 1"><path class="cls-1" d="M206.76.07c7.54,0,16,0,25.41,0,75.61,0,84.57.27,114.43,1.63,27.62,1.26,42.6,5.88,52.59,9.75a87.63,87.63,0,0,1,32.54,21.18A87.81,87.81,0,0,1,452.92,65.2c3.88,10,8.5,25,9.76,52.57,1.35,29.85,1.65,38.82,1.65,114.4s-.3,84.55-1.65,114.4c-1.27,27.62-5.88,42.6-9.76,52.57a93.89,93.89,0,0,1-53.73,53.72c-10,3.89-25,8.49-52.59,9.76-29.85,1.35-38.82,1.65-114.43,1.65s-84.59-.3-114.44-1.65c-27.61-1.28-42.6-5.89-52.59-9.77a87.74,87.74,0,0,1-32.57-21.18,87.86,87.86,0,0,1-21.19-32.55c-3.88-10-8.49-25-9.75-52.57C.27,316.7,0,307.73,0,232.1s.27-84.55,1.63-114.4C2.89,90.09,7.5,75.1,11.38,65.12A87.68,87.68,0,0,1,32.57,32.55,87.89,87.89,0,0,1,65.14,11.36c10-3.9,25-8.5,52.59-9.77C143.85.41,154,.06,206.76,0Zm176.58,47a34,34,0,1,0,34,34A34,34,0,0,0,383.34,47.09ZM232.17,86.8A145.43,145.43,0,1,0,377.58,232.24,145.45,145.45,0,0,0,232.17,86.8Z"/><path class="cls-1" d="M232.17,137.84a94.4,94.4,0,1,1-94.4,94.4A94.4,94.4,0,0,1,232.17,137.84Z"/></g></g></svg>