<svg xmlns="http://www.w3.org/2000/svg" viewBox="0 0 515.01 515"><defs><style>.cls-1{fill:#f3a009;}</style></defs><g id="Layer_2" data-name="Layer 2"><g id="Layer_1-2" data-name="Layer 1"><path class="cls-1" d="M476.87,0H38C17.06,0,0,16.63,0,37.1V477.82C0,498.34,17.06,515,38,515H476.9c21,0,38.11-16.66,38.11-37.18V37.1C515,16.63,497.91,0,476.87,0Zm-324,438.83H76.37V193.07H152.9ZM114.59,159.32a44.29,44.29,0,1,1-.06-88.57h0a44.29,44.29,0,0,1,0,88.57ZM439,438.84H362.67V319.29c0-28.48-.52-65.18-39.69-65.18-39.75,0-45.87,31.06-45.87,63.09V438.78H200.79V193.07h-.11l.11,0v0h73.15v33.58h1C285.16,207.34,310.07,187,347.38,187,424.73,187,439,237.87,439,304Z"/></g></g></svg>