<svg xmlns="http://www.w3.org/2000/svg" viewBox="0 0 664 664"><defs><style>.cls-1{fill:#22193e;}.cls-2{fill:#efe1f0;}.cls-3{fill:#f3a009;}</style></defs><g id="Layer_2" data-name="Layer 2"><g id="Layer_1-2" data-name="Layer 1"><circle class="cls-1" cx="332" cy="332" r="332"/><path class="cls-2" d="M426.72,520H390.89a2.45,2.45,0,0,1-2.44-2.44v-37.3c0-29.67,0-93.47.35-123.14,0-17.24.34-41.73.69-67.94V262.63c-27.59,86.57-69.33,199-85.54,251.78-2.41,8.28-12.76,7.24-12.76-1.72,0-82.44-44.84-139.35-70.7-219.36,0,51.73-.35,109.33-1.38,149-1,23.79-9.66,41.73-23.11,54.49-15.18,14.49-36.22,21.73-57.6,22.07-43.46.69-71.05-22.07-83.12-51.39a95.79,95.79,0,0,1-6.9-45.18,99.92,99.92,0,0,1,13.45-44.15c15.87-25.86,44.49-43.8,84.5-39.32,9.31,1,7.24,12.08-1,11.39-35.18-4.14-60,11.38-73.81,33.8a90.47,90.47,0,0,0-12.08,39,88.88,88.88,0,0,0,6.21,40.36c10.7,25.52,34.49,44.83,72.78,44.49,18.62-.35,36.9-6.56,49.67-19,11.38-11,19-26.56,19.65-46.56C209.45,392,209.45,313,209.45,254V204c.34-10,12.07-4.83,13.45-1.73,49.67,101.4,88,145.21,91.74,237.64,24.49-78.29,55.88-154.17,80.71-232.46,5.52-17.25,34.84-12.08,34.84-.69V264.7a55.14,55.14,0,0,0-.35,7.24c0,22.42,0,59.33-.34,81.06,0,29.66-.35,93.12-.35,122.78,0,8.67,0,33.85,0,41.79A2.44,2.44,0,0,1,426.72,520Z"/><path class="cls-2" d="M579.48,226.82c1.17,9.45.45,18-4,26.36s-11.09,12.16-20.73,13.12c-6.81.68-13.83-1.89-19.59-6.13a22.09,22.09,0,0,1-8.6-12,4.09,4.09,0,0,1,3.59-5.21c7.7-.63,14.37-1.91,19.38-9.34,3.85-5.72,4.19-16.5.61-22.16-3.33-5.29-6.18-7-12.6-7.62-5.34-.54-15.18,1.15-19.8,5.42-8.25,7.6-10.91,13.52-14.18,25.55-4.83,17.78-4.36,40.42-5,60a4,4,0,0,0,4,4.18c12.57,0,25.55,0,37.43.09,3.92,0,5.67,2.61,5.7,5.49h0a5.36,5.36,0,0,1-5.71,5.66c-12.16,0-25.46,0-37.91,0-2.23,0-4.52,1.53-4.61,3.76-.31,7.83,0,187.55,0,203.43,0,2.45,0,2.45-2.42,2.45-17.18,0-35.43.22-52.58.08-2.32,0-2.32,0-2.32-2.51,0-10.94,0-203.38,0-203.65,0-5.65.93-23.94,1.09-26.06,1.81-24.34,3.5-40.28,16.58-60.9,7.11-11,12-14.38,20.2-19.19,7.41-4.34,15.42-7.2,24.74-9.54s19.05-2.9,27.5-3.09a69,69,0,0,1,23.52,3.41,40.85,40.85,0,0,1,17.27,10.91A29.75,29.75,0,0,1,579.48,226.82Z"/><path class="cls-3" d="M164.58,227.75a67.25,67.25,0,0,1-7.24-2.73c-10.6-5.53-18.22-16.92-20.38-30.45a3.26,3.26,0,0,0-6.45,0c-2.16,13.53-9.78,24.92-20.38,30.45a68.05,68.05,0,0,1-7.24,2.73,3.27,3.27,0,0,0,0,6.22,65.86,65.86,0,0,1,7.24,2.73c10.6,5.53,18.22,16.91,20.38,30.45a3.27,3.27,0,0,0,6.45,0c2.16-13.54,9.78-24.92,20.38-30.45a65.86,65.86,0,0,1,7.24-2.73,3.27,3.27,0,0,0,0-6.22Zm-10.17,3.11-.09,0C145.2,235.67,138,244,133.73,254.45c-4.21-10.47-11.46-18.78-20.58-23.54l-.09,0,.09-.05c9.12-4.76,16.37-13.07,20.58-23.54,4.22,10.47,11.47,18.78,20.59,23.54Z"/><path class="cls-3" d="M133.64,125.08a3.76,3.76,0,0,0,2.61,3.58,107.94,107.94,0,0,1,11.29,4.26c16.58,8.66,28.5,26.44,31.87,47.57a3.77,3.77,0,0,0,7.44,0c3.38-21.13,15.3-38.91,31.88-47.57A107.94,107.94,0,0,1,230,128.66a3.77,3.77,0,0,0,0-7.17,105.74,105.74,0,0,1-11.29-4.26c-16.58-8.66-28.5-26.44-31.88-47.57a3.77,3.77,0,0,0-7.44,0c-3.37,21.13-15.29,38.91-31.87,47.57h0a105.74,105.74,0,0,1-11.29,4.26A3.75,3.75,0,0,0,133.64,125.08Zm14.84,0c1-.41,1.84-.8,2.54-1.17h0c14.67-7.65,26.07-21.51,32.11-38.47,6.05,17,17.45,30.82,32.11,38.47.71.37,1.59.76,2.55,1.17-1,.4-1.84.79-2.55,1.16-14.66,7.65-26.06,21.51-32.11,38.47-6-17-17.44-30.82-32.11-38.47C150.32,125.87,149.44,125.48,148.48,125.08Z"/></g></g></svg>