<svg xmlns="http://www.w3.org/2000/svg" viewBox="0 0 333.35 284.22"><defs><style>.cls-1{fill:#4d2772;}.cls-2{fill:#f3a009;}</style></defs><g id="Layer_2" data-name="Layer 2"><g id="Layer_1-2" data-name="Layer 1"><path class="cls-1" d="M237.32,284.18H214.86a1.52,1.52,0,0,1-1.52-1.52V259.28c0-18.58,0-58.57.21-77.15,0-10.81.22-26.16.43-42.58V122.91c-17.29,54.24-43.44,124.7-53.59,157.77-1.52,5.19-8,4.54-8-1.08,0-51.66-28.1-87.32-44.31-137.46,0,32.42-.21,68.51-.86,93.37-.65,14.91-6,26.15-14.48,34.15-9.51,9.07-22.69,13.61-36.09,13.83-27.24.43-44.53-13.83-52.09-32.2A60.11,60.11,0,0,1,.24,223a62.67,62.67,0,0,1,8.43-27.66c9.94-16.21,27.88-27.45,53-24.64,5.83.65,4.53,7.57-.65,7.13-22-2.59-37.61,7.14-46.25,21.18a56.78,56.78,0,0,0-7.57,24.43A55.6,55.6,0,0,0,11,248.69c6.7,16,21.62,28.1,45.61,27.88,11.67-.21,23.12-4.1,31.12-11.89,7.13-6.91,11.88-16.64,12.32-29.17,1.08-31.56,1.08-81,1.08-118V86.17c.21-6.27,7.56-3,8.43-1.08,31.12,63.54,55.11,91,57.48,148.91,15.35-49.06,35-96.61,50.58-145.67,3.46-10.81,21.83-7.57,21.83-.43v36.3a34.55,34.55,0,0,0-.22,4.54c0,14,0,37.18-.22,50.79,0,18.59-.21,58.36-.21,76.94v26.19A1.52,1.52,0,0,1,237.32,284.18Z"/><path class="cls-1" d="M333,100.47c.74,5.92.29,11.26-2.48,16.52s-6.95,7.61-13,8.22c-4.27.43-8.67-1.19-12.28-3.84a13.88,13.88,0,0,1-5.39-7.5,2.57,2.57,0,0,1,2.25-3.27c4.83-.4,9-1.2,12.15-5.85,2.41-3.59,2.62-10.34.38-13.89-2.09-3.31-3.88-4.36-7.9-4.77-3.34-.34-9.51.72-12.41,3.39-5.16,4.77-6.83,8.48-8.88,16-3,11.14-2.73,25.32-3.13,37.56a2.52,2.52,0,0,0,2.52,2.62c7.88,0,16,0,23.46.06a3.31,3.31,0,0,1,3.57,3.44h0a3.36,3.36,0,0,1-3.58,3.55c-7.62,0-15.95,0-23.75,0a2.76,2.76,0,0,0-2.89,2.36c-.19,4.9,0,117.51,0,127.47,0,1.53,0,1.53-1.52,1.53-10.76,0-22.2.14-33,.05-1.45,0-1.45,0-1.45-1.57,0-6.86,0-127.44,0-127.61,0-3.54.58-15,.68-16.33,1.14-15.25,2.2-25.24,10.39-38.16,4.45-6.87,7.51-9,12.66-12a58.62,58.62,0,0,1,15.5-6,78.86,78.86,0,0,1,17.24-1.93A43.17,43.17,0,0,1,317,82.65a25.56,25.56,0,0,1,10.82,6.83A18.58,18.58,0,0,1,333,100.47Z"/><path class="cls-2" d="M73.05,101.05a40.68,40.68,0,0,1-4.54-1.71c-6.64-3.47-11.41-10.6-12.77-19.08a2,2,0,0,0-4,0c-1.35,8.48-6.13,15.61-12.77,19.08a41.31,41.31,0,0,1-4.53,1.71,2,2,0,0,0,0,3.9,42.28,42.28,0,0,1,4.53,1.71c6.64,3.46,11.42,10.6,12.77,19.08a2,2,0,0,0,4,0c1.36-8.48,6.13-15.62,12.77-19.08A41.65,41.65,0,0,1,73.05,105a2,2,0,0,0,0-3.9Zm-6.37,2-.06,0a28.28,28.28,0,0,0-12.9,14.75A28.26,28.26,0,0,0,40.83,103l-.06,0,.06,0A28.26,28.26,0,0,0,53.72,88.22,28.28,28.28,0,0,0,66.62,103Z"/><path class="cls-2" d="M53.66,36.71A2.35,2.35,0,0,0,55.3,39a67.37,67.37,0,0,1,7.07,2.67c10.39,5.42,17.86,16.57,20,29.81a2.36,2.36,0,0,0,4.67,0c2.11-13.24,9.58-24.39,20-29.81A66.68,66.68,0,0,1,114.06,39a2.36,2.36,0,0,0,0-4.49A64.71,64.71,0,0,1,107,31.79C96.59,26.37,89.12,15.23,87,2a2.36,2.36,0,0,0-4.67,0c-2.11,13.24-9.58,24.38-20,29.8h0a65.36,65.36,0,0,1-7.07,2.68A2.35,2.35,0,0,0,53.66,36.71Zm9.3,0c.6-.25,1.15-.5,1.6-.73h0c9.18-4.79,16.33-13.48,20.12-24.1C88.46,22.5,95.61,31.19,104.8,36c.44.23,1,.48,1.59.73-.6.26-1.15.5-1.59.73-9.19,4.8-16.34,13.48-20.12,24.11C80.89,50.92,73.74,42.24,64.56,37.44,64.11,37.21,63.56,37,63,36.71Z"/></g></g></svg>